<svg width="200" height="200" viewBox="0 0 200 200" fill="none" xmlns="http://www.w3.org/2000/svg">
<rect width="200" height="200" fill="white"/>
<g clip-path="url(#clip0_484_49735)">
<path d="M59.626 105.191H140.458V97.1434H59.626V105.191Z" fill="#211D1D"/>
<path d="M90.4838 47.8382C97.1567 47.7774 104.688 47.6542 108.361 53.9529C110.627 57.8671 110.567 63.3087 107.81 67.0402C105.424 70.2182 100.647 72.0544 97.9534 72.0544H90.4838C90.4838 70.4639 90.4838 49.3665 90.4838 47.8382ZM82.7682 80.1252C87.5441 80.1252 96.7897 80.1252 97.8917 80.1252C103.22 79.9412 108.301 77.6182 112.097 73.7657C116.688 69.1791 118.648 62.7588 117.239 56.155C115.281 46.8587 107.076 40.2565 96.9732 39.7658C92.9331 39.7658 82.8908 39.7658 82.8908 39.7658C82.8908 39.7658 82.3395 39.6433 82.4019 40.1332C82.4019 40.439 82.4019 79.4529 82.4019 79.4529C82.4019 79.4529 82.4019 80.1252 82.7682 80.1252Z" fill="#211D1D"/>
<path d="M116.942 122.928H109.532C109.288 122.928 109.166 123.05 109.166 123.234C109.166 126.597 109.166 135.587 109.166 138.461H90.9199C90.9199 124.292 90.9199 123.28 90.9199 123.226C90.9199 123.226 90.9199 123.223 90.9199 123.223C90.9199 123.218 90.9199 123.206 90.9199 123.173C90.9199 123.05 90.9199 122.928 90.6131 122.928H83.2044C82.9601 122.928 82.8374 123.05 82.8374 123.234V163.043C82.8374 163.288 82.9601 163.288 83.2044 163.288H90.6131C90.8575 163.288 90.9199 163.226 90.9199 162.922C90.9809 157.479 90.9199 152.036 90.9199 146.533H109.166C109.166 162.738 109.166 157.111 109.166 163.043C109.166 163.288 109.288 163.288 109.47 163.288H116.942C117.186 163.288 117.246 163.226 117.246 162.983V123.173C117.246 123.05 117.186 122.928 116.942 122.928Z" fill="#211D1D"/>
<path d="M30.0976 183.973V16.078H169.987V183.973H30.0976ZM22.0405 8.02865V192.022H178.045V8.02865H22.0405Z" fill="#211D1D"/>
</g>
<defs>
<clipPath id="clip0_484_49735">
<rect width="156" height="184" fill="white" transform="translate(22 8)"/>
</clipPath>
</defs>
</svg>
