<svg width="246" height="16" viewBox="0 0 246 16" fill="none" xmlns="http://www.w3.org/2000/svg">
<g id="DH Logo">
<g id="Vector">
<path d="M11.6349 13.3036C10.19 14.7742 8.25771 15.6548 6.2314 15.7232C5.81246 15.7232 2.29846 15.7232 0.477344 15.7232C0.340546 15.7318 0.340546 15.4753 0.340546 15.4753C0.340546 15.4753 0.340546 0.615605 0.340546 0.495907C0.314897 0.30781 0.528643 0.359109 0.528643 0.359109C0.528643 0.359109 4.35043 0.359109 5.88085 0.359109C9.71974 0.547206 12.8404 3.06086 13.5843 6.6005C14.1315 9.11416 13.3791 11.5594 11.6349 13.3036ZM3.41849 3.42851C3.41849 4.0099 3.41849 12.0468 3.41849 12.6538H6.25705C7.28303 12.6538 9.0956 11.9527 10.0019 10.7472C11.0535 9.32791 11.0706 7.25884 10.2156 5.76262C8.82201 3.36011 5.9578 3.41141 3.41849 3.42851Z" fill="#191A1A"/>
<path d="M34.9675 15.7318H31.8895L30.6754 12.6538H24.9043L23.7159 15.7318H20.3643C20.3643 15.7318 20.2703 15.7574 20.3216 15.6121L26.05 0.453158C26.05 0.453158 26.0927 0.359109 26.1868 0.359109H29.145C29.3075 0.359109 29.2647 0.33346 29.3331 0.478807L35.1299 15.5437C35.1299 15.5437 35.2411 15.7318 34.9675 15.7318ZM27.7941 4.48014L25.8619 9.57586H29.5383L27.7941 4.48014Z" fill="#191A1A"/>
<path d="M45.2957 15.7318H42.4828C42.3887 15.7318 42.346 15.7318 42.346 15.6377V0.478807C42.346 0.410409 42.3887 0.359109 42.4828 0.359109H45.2957C45.4154 0.359109 45.4154 0.401859 45.4154 0.478807V15.6121C45.4154 15.7061 45.3897 15.7318 45.2957 15.7318Z" fill="#191A1A"/>
<path d="M63.9942 15.7318C61.1044 15.7318 58.2231 15.7318 55.3332 15.7318C55.3332 15.7318 55.1964 15.7318 55.1964 15.6377V0.478807C55.1964 0.410409 55.2392 0.359109 55.3332 0.359109H58.1547C58.2744 0.359109 58.2744 0.401859 58.2744 0.478807V12.6538C60.181 12.6538 62.0962 12.6538 64.0028 12.6538C64.0968 12.6538 64.1225 12.6966 64.1225 12.7735V15.595C64.1139 15.7061 64.0883 15.7318 63.9942 15.7318Z" fill="#191A1A"/>
<path d="M79.991 15.7318H77.1696C77.0755 15.7318 77.0328 15.7318 77.0328 15.6377C77.0328 13.2608 77.0328 8.67812 77.0328 8.67812L71.7917 0.478807C71.7917 0.478807 71.7661 0.359109 71.8601 0.359109H75.0065L78.5717 5.60017L82.1114 0.359109H85.138C85.2321 0.359109 85.2064 0.478807 85.2064 0.478807L80.1107 8.67812C80.1107 10.9866 80.1107 13.3121 80.1107 15.6206C80.1022 15.7061 80.0765 15.7318 79.991 15.7318Z" fill="#191A1A"/>
<path d="M122.27 15.7318H119.432C119.363 15.7318 119.312 15.7318 119.312 15.6377C119.312 13.3805 119.312 15.518 119.312 9.35356H112.369C112.369 11.4483 112.395 13.5259 112.369 15.595C112.369 15.7147 112.344 15.7318 112.25 15.7318H109.437C109.343 15.7318 109.3 15.7318 109.3 15.6377V0.478807C109.3 0.410409 109.343 0.359109 109.437 0.359109H112.25C112.369 0.359109 112.369 0.401859 112.369 0.453158C112.369 0.615605 112.369 -0.478776 112.369 6.27561H119.312C119.312 5.18123 119.312 1.76129 119.312 0.478807C119.312 0.410409 119.355 0.359109 119.449 0.359109H122.262C122.356 0.359109 122.381 0.401859 122.381 0.453158V15.6121C122.381 15.7061 122.364 15.7318 122.27 15.7318Z" fill="#191A1A"/>
<path d="M145.688 15.7318H142.61L141.396 12.6538H135.625L134.437 15.7318H131.085C131.085 15.7318 130.991 15.7574 131.042 15.6121L136.771 0.453158C136.771 0.453158 136.813 0.359109 136.907 0.359109H139.866C140.028 0.359109 139.985 0.33346 140.054 0.478807L145.851 15.5437C145.851 15.5437 145.97 15.7318 145.688 15.7318ZM138.515 4.48014L136.583 9.57586H140.259L138.515 4.48014Z" fill="#191A1A"/>
<path d="M157.419 15.7318H154.597C154.503 15.7318 154.46 15.7318 154.46 15.6377V0.478807C154.46 0.410409 154.503 0.359109 154.623 0.359109C156.042 0.359109 157.273 0.33346 158.462 0.33346C160.693 0.359109 161.788 0.91485 162.865 2.42817C163.497 3.31736 163.797 4.42884 163.703 5.50612C163.583 6.81425 162.908 8.01978 161.557 8.55842C163.284 10.9353 165.284 13.0727 166.823 15.518C166.866 15.6548 166.729 15.7061 166.661 15.7318H163.19C161.608 13.637 160.043 11.6107 158.556 9.5844C158.419 9.5844 157.923 9.5844 157.624 9.5844C157.624 9.5844 157.53 9.55875 157.53 9.67845V15.6206C157.53 15.7061 157.513 15.7318 157.419 15.7318ZM157.53 6.50646C158.368 6.53211 159.513 6.64325 160.163 5.92507C160.539 5.53177 160.582 4.83069 160.394 4.38609C159.975 3.31736 158.744 3.38576 157.718 3.38576H157.53V6.50646Z" fill="#191A1A"/>
<path d="M181.538 15.5437C181.444 15.7574 181.512 15.7318 181.256 15.7318H178.511C178.374 15.7318 178.417 15.7574 178.323 15.5437L172.458 0.504457C172.415 0.31636 172.595 0.367659 172.595 0.367659H175.69L179.947 11.2858L184 0.367659H187.001C187.001 0.367659 187.189 0.32491 187.121 0.504457L181.538 15.5437Z" fill="#191A1A"/>
<path d="M195.927 0.33346C199.279 0.33346 205.896 0.33346 206.007 0.33346C206.101 0.359109 206.127 0.401859 206.127 0.453158V3.31736C206.127 3.41141 206.101 3.45416 206.007 3.45416H198.714V6.36111C198.714 6.36111 203.648 6.36111 204.118 6.36111C204.238 6.36111 204.238 6.40386 204.238 6.48081V9.31936C204.238 9.41341 204.212 9.43906 204.118 9.43906C202.16 9.43906 198.851 9.43906 198.851 9.43906V12.6538C198.851 12.6538 203.836 12.6538 206.324 12.6538C206.418 12.6538 206.418 12.6966 206.418 12.7735V15.6121C206.418 15.7061 206.392 15.7318 206.298 15.7318C205.785 15.7318 196.072 15.7318 195.91 15.7318C195.816 15.7318 195.773 15.7318 195.773 15.6377C195.773 15.3812 195.773 0.572856 195.773 0.478807C195.782 0.384759 195.833 0.33346 195.927 0.33346Z" fill="#191A1A"/>
<path d="M219.738 15.9882C218.063 15.8942 216.549 15.0307 215.66 13.5686C215.472 13.2437 215.241 12.8676 215.267 12.4486C216.13 11.8929 216.994 11.4226 217.849 10.9096C218.037 11.3286 218.148 11.7732 218.456 12.1408C218.969 12.7222 219.644 13.1155 220.482 13.0043C221.577 12.8163 222.551 11.4654 221.996 10.3966C221.252 9.00302 219.576 8.88332 218.294 8.25063C216.66 7.43839 215.498 5.77972 215.566 4.0099C215.609 2.30848 216.917 0.607055 218.567 0.171013C220.687 -0.384728 222.97 0.427508 224.039 2.41108C224.082 2.43672 224.013 2.59917 224.013 2.59917C224.013 2.59917 221.944 3.9928 221.611 4.06975C221.26 3.48836 220.773 2.81292 220.072 2.81292C218.422 2.78727 218.046 4.35189 218.978 5.23253C220.722 6.39531 223.15 6.32691 224.407 8.35323C225.313 9.79815 225.544 11.8416 224.638 13.3634C223.603 15.0563 221.91 16.125 219.738 15.9882Z" fill="#191A1A"/>
<path d="M245.516 3.42851C244.029 3.42851 242.584 3.40286 241.07 3.42851C241.07 7.48114 241.096 11.5338 241.096 15.6121C241.096 15.7061 241.053 15.7318 240.959 15.7318H238.138C238.044 15.7318 238.001 15.7318 238.001 15.6377C238.001 11.5167 238.001 7.67779 238.027 3.43706C237.12 3.43706 234.538 3.43706 233.529 3.43706C233.435 3.43706 233.393 3.43706 233.393 3.34301V0.478807C233.393 0.410409 233.435 0.359109 233.529 0.359109H245.542C245.636 0.359109 245.662 0.401859 245.662 0.453158V3.31736C245.653 3.41141 245.61 3.42851 245.516 3.42851Z" fill="#191A1A"/>
</g>
</g>
</svg>
