<?xml version="1.0" encoding="UTF-8"?>
<!--
  DRIZZL DIDONE DISPLAY
  Optical size: 48-120px
  Contrast ratio: 11:1 (thick:thin)
  Purpose: Hero titles, headlines
-->
<svg xmlns="http://www.w3.org/2000/svg" style="display:none">
  <defs>
    <!-- Metrics: 1000 UPM, Cap height 720, x-height 380, Ascender 800, Descender -200 -->
    
    <!-- A - Sharp apex, bracketed serifs -->
    <symbol id="ddd-A" viewBox="0 0 750 1000">
      <path d="M375 80 L375 80
        Q378 80 380 85
        L680 780
        Q685 792 690 800
        L750 800 L750 815
        Q720 815 690 815
        L620 815 L620 800
        Q630 800 640 795
        L540 560 L210 560 L110 795
        Q120 800 130 800
        L130 815 L60 815
        Q30 815 0 815
        L0 800 L60 800
        Q65 792 70 780
        L370 85
        Q372 80 375 80 Z
        M230 520 L520 520 L375 180 L230 520 Z
        M50 800 Q60 808 80 815 L80 815 Q60 815 50 815 L50 800 Z
        M670 800 Q680 808 700 815 L700 815 Q680 815 670 815 L670 800 Z" fill="currentColor"/>
    </symbol>
    
    <!-- B - Double bowl with bracketed serifs -->
    <symbol id="ddd-B" viewBox="0 0 620 1000">
      <path d="M70 80 L70 80
        Q70 80 75 80
        L340 80
        Q480 80 540 140
        Q600 200 600 280
        Q600 360 550 410
        Q520 440 470 455
        Q540 475 580 530
        Q620 590 620 660
        Q620 740 560 790
        Q500 840 380 840
        L75 840
        Q70 840 70 840
        L70 80 Z
        M150 120 L150 420 L320 420
        Q420 420 470 380
        Q520 340 520 280
        Q520 220 470 180
        Q420 140 320 140
        L150 140 L150 120 Z
        M150 460 L150 800 L360 800
        Q480 800 530 755
        Q540 745 540 660
        Q540 600 500 555
        Q460 510 360 500
        L150 500 L150 460 Z
        M50 80 Q50 95 70 110 L70 80 L50 80 Z
        M50 840 Q50 825 70 810 L70 840 L50 840 Z" fill="currentColor"/>
    </symbol>
    
    <!-- C - Open curve with ball terminals -->
    <symbol id="ddd-C" viewBox="0 0 680 1000">
      <path d="M580 220
        Q540 140 460 100
        Q380 60 300 60
        Q160 60 90 160
        Q20 260 20 440
        Q20 620 90 720
        Q160 820 300 820
        Q400 820 480 770
        Q560 720 600 640
        L600 640 L660 660
        Q620 760 530 820
        Q440 880 300 880
        Q120 880 50 760
        Q-20 640 -20 440
        Q-20 240 50 120
        Q120 0 300 0
        Q420 0 510 60
        Q600 120 640 220
        L580 220 Z
        M600 200 Q620 180 640 180 Q660 180 660 200 Q660 220 640 220 L600 200 Z
        M600 680 Q620 700 640 700 Q660 700 660 680 Q660 660 640 660 L600 680 Z" fill="currentColor"/>
    </symbol>
    
    <!-- D - Bowl with vertical stress -->
    <symbol id="ddd-D" viewBox="0 0 720 1000">
      <path d="M70 80 L70 80
        Q70 80 75 80
        L320 80
        Q540 80 640 200
        Q740 320 740 460
        Q740 600 640 720
        Q540 840 320 840
        L75 840
        Q70 840 70 840
        L70 80 Z
        M150 120 L150 800 L300 800
        Q480 800 560 700
        Q640 600 640 460
        Q640 320 560 220
        Q480 120 300 120
        L150 120 Z
        M50 80 Q50 95 70 110 L70 80 L50 80 Z
        M50 840 Q50 825 70 810 L70 840 L50 840 Z" fill="currentColor"/>
    </symbol>
    
    <!-- E - Three horizontal bars -->
    <symbol id="ddd-E" viewBox="0 0 580 1000">
      <path d="M70 80 L70 80
        L540 80 L540 140
        Q530 135 520 130
        L150 130 L150 420
        L480 420 L480 480
        L150 480 L150 790
        L530 790
        Q540 785 550 780
        L550 840 L70 840
        L70 80 Z
        M50 80 Q50 95 70 110 L70 80 L50 80 Z
        M50 840 Q50 825 70 810 L70 840 L50 840 Z
        M520 80 Q540 80 560 95 L560 80 L520 80 Z
        M520 840 Q540 840 560 825 L560 840 L520 840 Z" fill="currentColor"/>
    </symbol>
    
    <!-- F - Like E without bottom bar -->
    <symbol id="ddd-F" viewBox="0 0 560 1000">
      <path d="M70 80 L70 80
        L520 80 L520 140
        Q510 135 500 130
        L150 130 L150 420
        L460 420 L460 480
        L150 480 L150 840
        L70 840
        L70 80 Z
        M50 80 Q50 95 70 110 L70 80 L50 80 Z
        M50 840 Q50 825 70 810 L70 840 L50 840 Z
        M500 80 Q520 80 540 95 L540 80 L500 80 Z" fill="currentColor"/>
    </symbol>
    
    <!-- G - C with spur -->
    <symbol id="ddd-G" viewBox="0 0 740 1000">
      <path d="M600 220
        Q560 140 480 100
        Q400 60 320 60
        Q180 60 100 160
        Q20 260 20 440
        Q20 620 100 720
        Q180 820 320 820
        Q440 820 520 760
        Q580 720 600 640
        L600 520 L420 520 L420 460
        L680 460 L680 680
        Q640 780 540 830
        Q440 880 320 880
        Q140 880 60 760
        Q-20 640 -20 440
        Q-20 240 60 120
        Q140 0 320 0
        Q440 0 540 60
        Q620 110 660 200
        L600 220 Z
        M620 200 Q640 180 660 180 Q680 180 680 200 Q680 220 660 220 L620 200 Z" fill="currentColor"/>
    </symbol>
    
    <!-- H - Two stems with crossbar -->
    <symbol id="ddd-H" viewBox="0 0 720 1000">
      <path d="M70 80 L70 80
        L150 80 L150 420
        L570 420 L570 80
        L650 80 L650 840
        L570 840 L570 480
        L150 480 L150 840
        L70 840 L70 80 Z
        M50 80 Q50 95 70 110 L70 80 L50 80 Z
        M50 840 Q50 825 70 810 L70 840 L50 840 Z
        M630 80 Q650 80 670 95 L670 80 L630 80 Z
        M630 840 Q650 840 670 825 L670 840 L630 840 Z" fill="currentColor"/>
    </symbol>
    
    <!-- I - Single stem with serifs -->
    <symbol id="ddd-I" viewBox="0 0 280 1000">
      <path d="M100 80 L100 80
        L180 80 L180 840
        L100 840 L100 80 Z
        M40 80 Q60 80 80 95 L80 80 L40 80 Z
        M200 80 Q220 80 240 95 L240 80 L200 80 Z
        M40 840 Q60 840 80 825 L80 840 L40 840 Z
        M200 840 Q220 840 240 825 L240 840 L200 840 Z" fill="currentColor"/>
    </symbol>
    
    <!-- J - Descending stem with curve -->
    <symbol id="ddd-J" viewBox="0 0 420 1000">
      <path d="M260 80 L260 80
        L340 80 L340 640
        Q340 760 280 820
        Q220 880 140 880
        Q80 880 40 850
        Q0 820 0 780
        L60 780
        Q60 810 85 830
        Q110 850 150 850
        Q200 850 235 810
        Q260 780 260 700
        L260 80 Z
        M200 80 Q220 80 240 95 L240 80 L200 80 Z
        M320 80 Q340 80 360 95 L360 80 L320 80 Z" fill="currentColor"/>
    </symbol>
    
    <!-- K - Stem with diagonals -->
    <symbol id="ddd-K" viewBox="0 0 700 1000">
      <path d="M70 80 L70 80
        L150 80 L150 400
        L480 80 L580 80
        Q590 80 600 85
        L600 100
        L300 400 L620 780
        Q625 790 630 800
        L680 800 L680 815
        L600 815 L580 815
        L260 430 L150 540
        L150 840 L70 840
        L70 80 Z
        M50 80 Q50 95 70 110 L70 80 L50 80 Z
        M50 840 Q50 825 70 810 L70 840 L50 840 Z
        M560 80 Q580 80 600 95 L600 80 L560 80 Z
        M660 840 Q660 825 640 810 L680 840 L660 840 Z" fill="currentColor"/>
    </symbol>
    
    <!-- L - Stem with baseline -->
    <symbol id="ddd-L" viewBox="0 0 560 1000">
      <path d="M70 80 L70 80
        L150 80 L150 790
        L520 790
        Q530 785 540 780
        L540 840 L70 840
        L70 80 Z
        M50 80 Q50 95 70 110 L70 80 L50 80 Z
        M520 840 Q540 840 560 825 L560 840 L520 840 Z" fill="currentColor"/>
    </symbol>
    
    <!-- M - Double apex -->
    <symbol id="ddd-M" viewBox="0 0 900 1000">
      <path d="M70 80 L70 80
        L180 80 L450 680 L720 80
        L830 80 L830 840
        L750 840 L750 180
        L470 800 L430 800 L150 180
        L150 840 L70 840
        L70 80 Z
        M50 80 Q50 95 70 110 L70 80 L50 80 Z
        M50 840 Q50 825 70 810 L70 840 L50 840 Z
        M810 80 Q830 80 850 95 L850 80 L810 80 Z
        M810 840 Q830 840 850 825 L850 840 L810 840 Z" fill="currentColor"/>
    </symbol>
    
    <!-- N - Diagonal stem -->
    <symbol id="ddd-N" viewBox="0 0 720 1000">
      <path d="M70 80 L70 80
        L180 80 L570 720 L570 80
        L650 80 L650 840
        L540 840 L150 200 L150 840
        L70 840 L70 80 Z
        M50 80 Q50 95 70 110 L70 80 L50 80 Z
        M50 840 Q50 825 70 810 L70 840 L50 840 Z
        M630 80 Q650 80 670 95 L670 80 L630 80 Z
        M630 840 Q650 840 670 825 L670 840 L630 840 Z" fill="currentColor"/>
    </symbol>
    
    <!-- O - Vertical stress oval -->
    <symbol id="ddd-O" viewBox="0 0 760 1000">
      <path d="M380 0
        Q560 0 650 120
        Q740 240 740 440
        Q740 640 650 760
        Q560 880 380 880
        Q200 880 110 760
        Q20 640 20 440
        Q20 240 110 120
        Q200 0 380 0 Z
        M380 60
        Q240 60 160 160
        Q80 260 80 440
        Q80 620 160 720
        Q240 820 380 820
        Q520 820 600 720
        Q680 620 680 440
        Q680 260 600 160
        Q520 60 380 60 Z" fill="currentColor"/>
    </symbol>
    
    <!-- P - Bowl with stem -->
    <symbol id="ddd-P" viewBox="0 0 620 1000">
      <path d="M70 80 L70 80
        Q70 80 75 80
        L340 80
        Q500 80 570 160
        Q640 240 640 340
        Q640 440 570 520
        Q500 600 340 600
        L150 600 L150 840
        L70 840 L70 80 Z
        M150 120 L150 560 L320 560
        Q440 560 500 500
        Q560 440 560 340
        Q560 240 500 180
        Q440 120 320 120
        L150 120 Z
        M50 80 Q50 95 70 110 L70 80 L50 80 Z
        M50 840 Q50 825 70 810 L70 840 L50 840 Z" fill="currentColor"/>
    </symbol>
    
    <!-- Q - O with decorative tail -->
    <symbol id="ddd-Q" viewBox="0 0 780 1000">
      <path d="M380 0
        Q560 0 650 120
        Q740 240 740 440
        Q740 600 680 710
        L760 840 L760 860
        L680 860 L600 740
        Q520 820 380 820
        Q200 820 110 700
        Q20 580 20 400
        Q20 200 110 100
        Q200 0 380 0 Z
        M380 60
        Q240 60 160 140
        Q80 220 80 400
        Q80 580 160 660
        Q240 760 380 760
        Q480 760 550 700
        L480 600 L520 560 L610 680
        Q660 600 660 440
        Q660 260 580 160
        Q500 60 380 60 Z" fill="currentColor"/>
    </symbol>
    
    <!-- R - P with leg -->
    <symbol id="ddd-R" viewBox="0 0 680 1000">
      <path d="M70 80 L70 80
        Q70 80 75 80
        L340 80
        Q500 80 560 150
        Q620 220 620 320
        Q620 420 570 490
        Q530 540 460 570
        L640 800
        Q650 815 660 815
        L660 830 L580 830
        L380 570 L150 570 L150 840
        L70 840 L70 80 Z
        M150 120 L150 530 L320 530
        Q440 530 490 475
        Q540 420 540 330
        Q540 240 490 185
        Q440 130 320 120
        L150 120 Z
        M50 80 Q50 95 70 110 L70 80 L50 80 Z
        M50 840 Q50 825 70 810 L70 840 L50 840 Z
        M640 840 Q660 840 680 825 L680 840 L640 840 Z" fill="currentColor"/>
    </symbol>
    
    <!-- S - Double curve -->
    <symbol id="ddd-S" viewBox="0 0 580 1000">
      <path d="M500 180
        Q460 100 380 60
        Q300 20 220 60
        Q140 100 100 160
        Q60 220 60 300
        Q60 380 120 440
        Q180 500 300 540
        L380 570
        Q480 600 520 660
        Q560 720 560 800
        Q560 900 480 950
        Q400 1000 280 960
        Q180 930 120 860
        L180 810
        Q230 870 300 900
        Q380 930 440 900
        Q500 870 500 800
        Q500 740 450 690
        Q400 640 300 600
        L220 570
        Q120 540 70 470
        Q20 400 20 300
        Q20 200 80 130
        Q140 60 220 20
        Q320 -20 420 30
        Q500 70 550 140
        L500 180 Z
        M520 160 Q540 140 560 150 Q580 160 570 180 L520 160 Z
        M60 870 Q40 890 20 880 Q0 870 10 850 L60 870 Z" fill="currentColor"/>
    </symbol>
    
    <!-- T - Crossbar with central stem -->
    <symbol id="ddd-T" viewBox="0 0 640 1000">
      <path d="M280 140 L280 140
        L280 840 L360 840
        L360 140 L600 140
        Q610 135 620 130
        L620 80 L20 80
        L20 130
        Q30 135 40 140
        L280 140 Z
        M20 80 Q40 80 60 95 L60 80 L20 80 Z
        M580 80 Q600 80 620 95 L620 80 L580 80 Z
        M240 840 Q260 840 280 825 L280 840 L240 840 Z
        M360 840 Q380 840 400 825 L400 840 L360 840 Z" fill="currentColor"/>
    </symbol>
    
    <!-- U - Open bottom -->
    <symbol id="ddd-U" viewBox="0 0 720 1000">
      <path d="M70 80 L70 80
        L150 80 L150 580
        Q150 700 220 760
        Q290 820 360 820
        Q430 820 500 760
        Q570 700 570 580
        L570 80 L650 80
        L650 600
        Q650 740 560 810
        Q470 880 360 880
        Q250 880 160 810
        Q70 740 70 600
        L70 80 Z
        M50 80 Q50 95 70 110 L70 80 L50 80 Z
        M630 80 Q650 80 670 95 L670 80 L630 80 Z" fill="currentColor"/>
    </symbol>
    
    <!-- V - Inverted apex -->
    <symbol id="ddd-V" viewBox="0 0 720 1000">
      <path d="M20 80 L20 80
        L100 80 L360 720 L620 80
        L700 80 L700 95
        Q690 100 685 110
        L400 800 L320 800
        L35 110
        Q30 100 20 95
        L20 80 Z
        M20 80 Q40 80 60 95 L60 80 L20 80 Z
        M660 80 Q680 80 700 95 L700 80 L660 80 Z" fill="currentColor"/>
    </symbol>
    
    <!-- W - Double V -->
    <symbol id="ddd-W" viewBox="0 0 980 1000">
      <path d="M20 80 L20 80
        L100 80 L240 680 L420 120
        L500 120 L680 680 L820 80
        L900 80 L900 95
        Q890 100 885 110
        L720 800 L640 800 L460 240 L280 800
        L200 800 L35 110
        Q30 100 20 95
        L20 80 Z
        M20 80 Q40 80 60 95 L60 80 L20 80 Z
        M880 80 Q900 80 920 95 L920 80 L880 80 Z" fill="currentColor"/>
    </symbol>
    
    <!-- X - Crossed diagonals -->
    <symbol id="ddd-X" viewBox="0 0 680 1000">
      <path d="M20 80 L20 80
        L100 80 L340 400 L580 80
        L660 80 L660 95
        Q650 100 645 110
        L380 460 L660 800
        Q665 810 670 815
        L670 830 L590 830
        L340 500 L90 830 L10 830
        L10 815
        Q15 810 20 800
        L280 460 L35 110
        Q30 100 20 95
        L20 80 Z
        M20 80 Q40 80 60 95 L60 80 L20 80 Z
        M620 80 Q640 80 660 95 L660 80 L620 80 Z
        M20 840 Q40 840 60 825 L60 840 L20 840 Z
        M620 840 Q640 840 660 825 L660 840 L620 840 Z" fill="currentColor"/>
    </symbol>
    
    <!-- Y - V with descender -->
    <symbol id="ddd-Y" viewBox="0 0 680 1000">
      <path d="M20 80 L20 80
        L100 80 L340 440 L580 80
        L660 80 L660 95
        Q650 100 645 110
        L380 500 L380 840
        L300 840 L300 500
        L35 110
        Q30 100 20 95
        L20 80 Z
        M20 80 Q40 80 60 95 L60 80 L20 80 Z
        M620 80 Q640 80 660 95 L660 80 L620 80 Z
        M260 840 Q280 840 300 825 L300 840 L260 840 Z
        M380 840 Q400 840 420 825 L420 840 L380 840 Z" fill="currentColor"/>
    </symbol>
    
    <!-- Z - Diagonal with bars -->
    <symbol id="ddd-Z" viewBox="0 0 620 1000">
      <path d="M40 80 L40 80
        L580 80 L580 140
        L140 790 L580 790
        Q590 785 600 780
        L600 840 L40 840
        L40 780 L480 130
        L40 130
        Q30 135 20 140
        L20 80 L40 80 Z
        M20 80 Q40 80 60 95 L60 80 L20 80 Z
        M560 80 Q580 80 600 95 L600 80 L560 80 Z
        M20 840 Q40 840 60 825 L60 840 L20 840 Z
        M560 840 Q580 840 600 825 L600 840 L560 840 Z" fill="currentColor"/>
    </symbol>
  </defs>
</svg>
